<svg xmlns="http://www.w3.org/2000/svg" viewBox="0 0 32 32" fill="none" aria-hidden="true">
	<rect width="32" height="32" rx="7" fill="#1a1a1a" />
	<circle cx="16" cy="16" r="10.5" stroke="#f4f0e8" stroke-width="1.75" />
	<rect x="14.25" y="4" width="3.5" height="2.25" rx="0.5" fill="#a68942" />
	<rect x="14.25" y="25.75" width="3.5" height="2.25" rx="0.5" fill="#a68942" />
	<rect x="4" y="14.25" width="2.25" height="3.5" rx="0.5" fill="#a68942" />
	<rect x="25.75" y="14.25" width="2.25" height="3.5" rx="0.5" fill="#a68942" />
	<path
		d="M16 7.75v2.75M16 21.5v2.75M7.75 16h2.75M21.5 16h2.75"
		stroke="#3d3832"
		stroke-width="1.25"
		stroke-linecap="round"
	/>
	<circle cx="16" cy="16" r="4.5" fill="#f4f0e8" />
	<circle cx="16" cy="16" r="2" fill="#1a1a1a" />
	<path
		d="M13.5 16a2.5 2.5 0 1 0 5 0 2.5 2.5 0 0 0-5 0"
		stroke="#a68942"
		stroke-width="1"
		fill="none"
	/>
</svg>
